<?xml version="1.0" encoding="utf-8"?>
<svg version="1.1" id="Layer_1" xmlns="http://www.w3.org/2000/svg" x="0px" y="0px" width="100%" viewBox="0 0 189 191" enable-background="new 0 0 189 191" xmlns:bx="https://boxy-svg.com">
  <defs>
    <bx:export>
      <bx:file format="png" href="#object-0" excluded="true"/>
      <bx:file format="svg" href="#object-0"/>
      <bx:file format="svg" path="Untitled 2.svg"/>
    </bx:export>
  </defs>
  <g transform="matrix(1, 0, 0, 1, 0, 0.047417)">
    <path fill="#0198FF" opacity="1.000000" stroke="none" d="M 97.452 191.59 C 84.904 190.276 79.775 190.458 72.246 188.456 C 68.125 187.36 61.593 185.402 55.597 182.618 C 47.847 179.021 40.7 174.371 37.768 171.809 C 23.847 159.645 12.264 153.826 1.927 114.983 C 1.742 114.289 0.451 105.267 0.451 103.028 C 0.451 94.173 -0.158 94.639 0 91.113 C 0.066 89.644 0.781 87.282 0.905 83.582 C 0.936 82.663 3.068 73.268 3.291 72.277 C 7.037 55.677 15.308 41.326 27.174 29.075 C 29.516 26.657 33.125 22.975 37.931 19.368 C 45.519 13.674 55.749 7.791 66.102 4.503 C 82.909 -0.835 99.855 0 100.613 0 C 102.596 0 116.264 2.565 118.157 3.233 C 119.778 3.804 121.417 4.087 122.954 4.576 C 127.75 6.102 132.152 7.668 136.818 10.153 C 147.703 15.949 159.166 24.105 166.966 33.839 C 178.187 47.841 186.426 61.985 188.493 79.748 C 188.589 80.571 188.632 84.446 189.289 85.207 C 189.289 88.441 189.658 93.231 189.553 97.922 C 189.448 102.579 188.869 107.138 188.729 110.412 C 187.976 111.629 187.11 118.633 186.895 119.745 C 182.59 142.041 161.704 163.772 158.629 166.359 C 157.718 167.125 153.464 170.864 147.411 174.942 C 138.184 181.159 124.965 188.415 114.523 189.096 M 148.18 54.9 C 143.156 49.774 138.687 43.926 132.987 39.678 C 122.852 32.126 111.298 28.036 98.309 26.693 C 82.985 25.109 69.004 27.913 56.351 35.887 C 30.857 51.953 21.317 77.656 26.536 103.955 C 31.065 126.784 45.108 142.257 68.308 146.923 C 83.688 150.017 98.739 145.929 110.352 134.477 C 124.425 120.6 127.338 98.909 117.218 81.516 C 110.817 70.512 98.54 66.367 88.767 67.563 C 78.534 68.817 67.968 75.519 66.295 88.953 C 65.285 97.054 67.956 104.951 74.165 108.899 C 81.655 113.661 91.108 111.303 96.297 105.939 C 99.453 102.677 102.227 99.057 105.173 95.598 C 105.994 99.012 106.097 102.22 105.604 105.335 C 102.802 123.031 85.853 133.608 68.436 128.42 C 52.18 123.577 45.692 112.071 44.15 96.457 C 43.029 85.102 46.603 74.781 53.762 65.67 C 67.936 47.627 86.872 43.023 107.048 48.102 C 136.237 55.451 149.395 87.572 144.533 113.069 C 141.57 128.607 134.08 141.888 121.234 151.765 C 111.793 159.025 101.083 163.513 89.093 164.719 C 83.211 165.31 77.307 165.687 70.768 166.213 C 83.408 169.97 95.479 169.292 107.451 166.607 C 117.299 164.397 126.093 160.044 134.147 153.768 C 145.158 145.188 153.046 134.701 157.742 121.743 C 161.689 110.856 163.173 99.819 161.501 88.239 C 159.77 76.246 156.156 65.139 148.18 54.9 Z" style="" id="object-0"/>
    <ellipse style="fill: none; paint-order: fill; stroke: rgb(1, 152, 255);" cx="94.895" cy="95.695" rx="94.895" ry="95.695"/>
  </g>
</svg>